<svg xmlns="http://www.w3.org/2000/svg" width="20" height="20" viewBox="0 0 20 20"><path d="M12,2A10,10,0,1,0,22,12,10.011,10.011,0,0,0,12,2Zm7.411,7H16v.031A5.037,5.037,0,0,0,14.969,8H15V4.589A8.039,8.039,0,0,1,19.411,9ZM12,15a3,3,0,1,1,3-3A3,3,0,0,1,12,15ZM13,4.069V7.1a4.988,4.988,0,0,0-2,0V4.069a7.281,7.281,0,0,1,2,0Zm-4,.52V8h.031A5.037,5.037,0,0,0,8,9.031V9H4.589A8.039,8.039,0,0,1,9,4.589ZM4.069,11H7.1a5,5,0,0,0,0,2H4.069a7.281,7.281,0,0,1,0-2Zm.52,4H8v-.031a5.038,5.038,0,0,0,1,1.005v3.437A8.039,8.039,0,0,1,4.589,15ZM11,19.931V16.9a4.988,4.988,0,0,0,2,0v3.032a7.281,7.281,0,0,1-2,0Zm4-.52V15.974a5.038,5.038,0,0,0,1-1.005V15h3.411A8.039,8.039,0,0,1,15,19.411ZM19.931,13H16.9a5,5,0,0,0,0-2H19.93A7.859,7.859,0,0,1,20,12,8.047,8.047,0,0,1,19.931,13Z" transform="translate(-2 -2)" fill="#7b6ef6"/></svg>