<svg xmlns="http://www.w3.org/2000/svg" width="16" height="20" viewBox="0 0 16 20"><g transform="translate(-4 -2)"><path d="M19.9,8.586a1,1,0,0,0-.2-.293l-6-6a1,1,0,0,0-.293-.2.948.948,0,0,0-.094-.033.991.991,0,0,0-.259-.051C13.04,2.011,13.021,2,13,2H6A2,2,0,0,0,4,4V20a2,2,0,0,0,2,2H18a2,2,0,0,0,2-2V9c0-.021-.011-.04-.013-.062a.952.952,0,0,0-.051-.259.732.732,0,0,0-.033-.093ZM16.586,8H14V5.414ZM6,20V4h6V9a1,1,0,0,0,1,1h5l0,10Z" fill="#7b6ef6"/><path d="M8,12h8v2H8Zm0,4h8v2H8ZM8,8h2v2H8Z" fill="#7b6ef6"/></g></svg>